<?xml version="1.0" encoding="UTF-8" standalone="no"?>
<!-- Created with Inkscape (http://www.inkscape.org/) -->

<svg
   width="96.043747mm"
   height="96.043747mm"
   viewBox="0 0 96.043747 96.043747"
   version="1.1"
   id="svg1902"
   inkscape:version="1.2.2 (b0a8486541, 2022-12-01)"
   sodipodi:docname="spire.svg"
   xmlns:inkscape="http://www.inkscape.org/namespaces/inkscape"
   xmlns:sodipodi="http://sodipodi.sourceforge.net/DTD/sodipodi-0.dtd"
   xmlns:xlink="http://www.w3.org/1999/xlink"
   xmlns="http://www.w3.org/2000/svg"
   xmlns:svg="http://www.w3.org/2000/svg">
  <sodipodi:namedview
     id="namedview1904"
     pagecolor="#ffffff"
     bordercolor="#000000"
     borderopacity="0.25"
     inkscape:showpageshadow="2"
     inkscape:pageopacity="0.0"
     inkscape:pagecheckerboard="0"
     inkscape:deskcolor="#d1d1d1"
     inkscape:document-units="mm"
     showgrid="false"
     inkscape:zoom="0.70199214"
     inkscape:cx="167.38079"
     inkscape:cy="468.66621"
     inkscape:window-width="1674"
     inkscape:window-height="991"
     inkscape:window-x="26"
     inkscape:window-y="23"
     inkscape:window-maximized="0"
     inkscape:current-layer="layer1" />
  <defs
     id="defs1899">
    <clipPath
       id="image_clip">
      <rect
         x="-1.8"
         y="-1.8"
         width="3.5999999"
         height="3.5999999"
         id="rect6" />
    </clipPath>
    <radialGradient
       id="white_spot"
       cx="0.64999998"
       cy="0.69999999"
       r="0.75">
      <stop
         stop-color="#ffffff"
         offset="0"
         stop-opacity="0.7"
         id="stop9" />
      <stop
         stop-color="#ffffff"
         offset="0.1"
         stop-opacity="0.5"
         id="stop11" />
      <stop
         stop-color="#ffffff"
         offset="0.6"
         stop-opacity="0"
         id="stop13" />
      <stop
         stop-color="#000000"
         offset="0.6"
         stop-opacity="0"
         id="stop15" />
      <stop
         stop-color="#000000"
         offset="0.75"
         stop-opacity="0.05"
         id="stop17" />
      <stop
         stop-color="#000000"
         offset="0.85"
         stop-opacity="0.15"
         id="stop19" />
      <stop
         stop-color="#000000"
         offset="1"
         stop-opacity="0.5"
         id="stop21" />
    </radialGradient>
    <radialGradient
       id="radialGradient4231"
       cx="0.64999998"
       cy="0.69999999"
       r="0.75">
      <stop
         stop-color="#ffffff"
         offset="0"
         stop-opacity="0.7"
         id="stop4217" />
      <stop
         stop-color="#ffffff"
         offset="0.1"
         stop-opacity="0.5"
         id="stop4219" />
      <stop
         stop-color="#ffffff"
         offset="0.6"
         stop-opacity="0"
         id="stop4221" />
      <stop
         stop-color="#000000"
         offset="0.6"
         stop-opacity="0"
         id="stop4223" />
      <stop
         stop-color="#000000"
         offset="0.75"
         stop-opacity="0.05"
         id="stop4225" />
      <stop
         stop-color="#000000"
         offset="0.85"
         stop-opacity="0.15"
         id="stop4227" />
      <stop
         stop-color="#000000"
         offset="1"
         stop-opacity="0.5"
         id="stop4229" />
    </radialGradient>
    <radialGradient
       inkscape:collect="always"
       xlink:href="#white_spot"
       id="radialGradient4308"
       cx="6.749999"
       cy="8.999999"
       r="33.75"
       fx="6.749999"
       fy="8.999999"
       gradientUnits="userSpaceOnUse" />
    <radialGradient
       inkscape:collect="always"
       xlink:href="#white_spot"
       id="radialGradient4310"
       cx="6.749999"
       cy="8.999999"
       r="33.75"
       fx="6.749999"
       fy="8.999999"
       gradientUnits="userSpaceOnUse" />
  </defs>
  <g
     inkscape:label="Calque 1"
     inkscape:groupmode="layer"
     id="layer1"
     transform="translate(-61.599642,-24.655722)">
    <g
       id="image3"
       transform="matrix(26.458333,0,0,-26.458333,109.62152,72.677605)"
       clip-path="url(#image_clip)">
      <g
         id="fieldlines3"
         fill="none"
         stroke="#000000"
         stroke-width="0.02"
         stroke-linejoin="round"
         stroke-linecap="round">
        <g
           id="fieldline3_1">
          <path
             d="M -0.4579,0 -0.4585,0.0159 -0.4604,0.0317 -0.4636,0.0474 -0.4681,0.0629 -0.4737,0.078 -0.4807,0.0927 -0.4888,0.107 -0.498,0.1207 -0.5084,0.1337 -0.5199,0.146 -0.5324,0.1576 -0.5458,0.1682 -0.5601,0.178 -0.5752,0.1867 -0.591,0.1943 -0.6075,0.2008 -0.6244,0.2062 -0.6418,0.2103 -0.6595,0.2132 -0.6773,0.2148 -0.6953,0.2151 -0.7132,0.2142 -0.7309,0.212 -0.7484,0.2085 -0.7655,0.2038 -0.7821,0.1979 -0.7982,0.1909 -0.8136,0.1827 -0.8282,0.1735 -0.842,0.1634 -0.8549,0.1523 -0.8668,0.1404 -0.8777,0.1277 -0.8875,0.1143 -0.8962,0.1003 -0.9037,0.0858 -0.91,0.0708 -0.915,0.0555 -0.9189,0.0398 -0.9214,0.024 -0.9227,0.008 v -0.016 l 0.0013,-0.016 0.0025,-0.0158 0.0039,-0.0156 0.005,-0.0154 0.0063,-0.015 0.0075,-0.0145 0.0087,-0.014 0.0098,-0.0134 0.0109,-0.0127 0.0119,-0.0119 0.0129,-0.0111 0.0138,-0.0101 0.0146,-0.0092 0.0154,-0.0081 0.0161,-0.0071 0.0166,-0.0059 0.0171,-0.0047 0.0175,-0.0035 0.0177,-0.0022 0.0179,-9e-4 0.018,3e-4 0.0178,0.0016 0.0177,0.0029 0.0174,0.0041 0.0169,0.0054 0.0165,0.0065 0.0158,0.0076 0.0151,0.0087 0.0143,0.0098 0.0134,0.0106 0.0125,0.0116 0.0115,0.0123 0.0103,0.013 0.0093,0.0137 0.0081,0.0143 0.0069,0.0147 0.0057,0.0151 0.0045,0.0155 0.0032,0.0156 0.0019,0.0159 z"
             id="path320" />
          <g
             id="arrows3_1">
            <path
               id="use322"
               stroke="none"
               fill="#000000"
               d="m -0.91870991,-0.00675652 0.0470898,0.06556331 -0.0378721,-0.14905603 -0.0694756,0.13720473 z"
               style="stroke-width:0.00048" />
          </g>
        </g>
        <g
           id="fieldline3_2">
          <path
             d="M -0.4051,0 -0.4058,0.0196 -0.4077,0.0391 -0.4109,0.0586 -0.4154,0.0779 -0.4211,0.097 -0.4282,0.1158 -0.4364,0.1343 -0.4459,0.1525 -0.4567,0.1702 -0.4686,0.1874 -0.4817,0.204 -0.496,0.22 -0.5114,0.2353 -0.5278,0.2499 -0.5453,0.2636 -0.5637,0.2764 -0.583,0.2883 -0.6031,0.2992 -0.6239,0.309 -0.6454,0.3177 -0.6675,0.3253 -0.69,0.3316 -0.713,0.3368 -0.7363,0.3407 -0.7597,0.3433 -0.7833,0.3447 H -0.8069 L -0.8303,0.3435 -0.8537,0.341 -0.8767,0.3373 -0.8994,0.3323 -0.9216,0.3261 -0.9434,0.3188 -0.9645,0.3102 -0.9849,0.3006 -1.0046,0.29 -1.0235,0.2783 -1.0415,0.2656 -1.0586,0.2521 -1.0747,0.2377 -1.0898,0.2225 -1.1038,0.2065 -1.1168,0.1899 -1.1285,0.1727 -1.1392,0.1549 -1.1486,0.1366 -1.1568,0.1179 -1.1638,0.0988 -1.1695,0.0794 -1.174,0.0598 -1.1772,0.0399 -1.1791,0.02 -1.1797,0 l 6e-4,-0.02 0.0019,-0.0199 0.0032,-0.0199 0.0045,-0.0196 0.0057,-0.0194 0.007,-0.0191 0.0082,-0.0187 0.0094,-0.0183 0.0107,-0.0178 0.0117,-0.0172 0.013,-0.0166 0.014,-0.016 0.0151,-0.0152 0.0161,-0.0144 0.0171,-0.0135 0.018,-0.0127 0.0189,-0.0117 0.0197,-0.0106 0.0204,-0.0096 0.0211,-0.0086 0.0218,-0.0073 0.0222,-0.0062 0.0227,-0.005 0.023,-0.0037 0.0234,-0.0025 0.0234,-0.0012 h 0.0236 l 0.0236,0.0014 0.0234,0.0026 0.0233,0.0039 0.023,0.0052 0.0225,0.0063 0.0221,0.0076 0.0215,0.0087 0.0208,0.0098 0.0202,0.0109 0.0192,0.0119 0.0184,0.0128 0.0175,0.0137 0.0164,0.0146 0.0154,0.0153 0.0143,0.016 0.0131,0.0166 0.0119,0.0172 0.0108,0.0177 0.0095,0.0182 0.0082,0.0185 0.0071,0.0188 0.0057,0.0191 0.0045,0.0193 0.0032,0.0195 0.0019,0.0195 z"
             id="path326" />
          <g
             id="arrows3_2">
            <path
               id="use328"
               stroke="none"
               fill="#000000"
               d="m -1.1770877,-0.00698175 0.049594,0.06369 -0.043618,-0.14747712 -0.064109,0.139793 z"
               style="stroke-width:0.00048" />
          </g>
        </g>
        <g
           id="fieldline3_3">
          <path
             d="m -0.3411,0 -7e-4,0.024 -0.0019,0.024 -0.0031,0.0239 -0.0045,0.0239 -0.0057,0.0238 -0.007,0.0236 -0.0083,0.0236 -0.0096,0.0234 -0.0109,0.0231 -0.0122,0.0229 -0.0134,0.0226 -0.0148,0.0223 -0.016,0.0218 -0.0173,0.0215 -0.0184,0.0209 -0.0197,0.0203 -0.0209,0.0197 -0.022,0.019 -0.0231,0.0183 -0.0241,0.0175 -0.0251,0.0166 -0.026,0.0157 -0.0269,0.0147 -0.0277,0.0137 -0.0284,0.0126 -0.029,0.0116 -0.0297,0.0104 -0.0301,0.0092 -0.0306,0.0081 -0.0309,0.0068 -0.0311,0.0056 -0.0314,0.0043 -0.0315,0.0031 -0.0315,0.0018 -0.0315,5e-4 -0.0314,-7e-4 L -1.0987,0.5721 -1.1297,0.5688 -1.1604,0.5643 -1.1906,0.5586 -1.2205,0.5517 -1.2498,0.5436 -1.2785,0.5344 -1.3066,0.524 -1.3341,0.5125 -1.3608,0.5 -1.3867,0.4864 -1.4118,0.4719 -1.436,0.4564 -1.4593,0.44 -1.4817,0.4227 -1.5031,0.4046 -1.5234,0.3857 -1.5427,0.366 -1.5609,0.3457 -1.578,0.3247 -1.594,0.3031 -1.6088,0.2809 -1.6224,0.2582 -1.6349,0.235 -1.6461,0.2114 -1.6562,0.1874 -1.665,0.1631 -1.6725,0.1385 -1.6788,0.1137 -1.6839,0.0886 -1.6877,0.0634 -1.6902,0.0381 -1.6915,0.0127 v -0.0254 l 0.0013,-0.0254 0.0025,-0.0253 0.0038,-0.0252 0.0051,-0.0251 0.0063,-0.0248 0.0075,-0.0246 0.0088,-0.0244 0.0101,-0.0239 0.0112,-0.0236 0.0125,-0.0232 0.0136,-0.0227 0.0148,-0.0222 0.016,-0.0216 0.0171,-0.021 0.0182,-0.0203 0.0193,-0.0197 0.0203,-0.0189 0.0214,-0.0181 0.0224,-0.0173 0.0233,-0.0164 0.0242,-0.0155 0.0251,-0.0145 0.0259,-0.0136 0.0267,-0.0125 0.0275,-0.0115 0.0281,-0.0104 0.0287,-0.0092 0.0293,-0.0081 0.0299,-0.0069 0.0302,-0.0057 0.0307,-0.0045 0.031,-0.0033 0.0312,-0.002 0.0314,-7e-4 0.0315,5e-4 0.0315,0.0018 0.0315,0.0031 0.0314,0.0043 0.0311,0.0056 0.0309,0.0068 0.0306,0.0081 0.0301,0.0092 0.0297,0.0104 0.029,0.0116 0.0284,0.0126 0.0277,0.0137 0.0269,0.0147 0.026,0.0157 0.0251,0.0166 0.0241,0.0175 0.0231,0.0183 0.022,0.019 0.0209,0.0197 0.0197,0.0203 0.0184,0.021 0.0173,0.0214 0.016,0.0218 0.0148,0.0223 0.0134,0.0226 0.0122,0.0229 0.0109,0.0232 0.0096,0.0233 0.0083,0.0236 0.007,0.0236 0.0057,0.0238 0.0045,0.0239 0.0031,0.0239 0.0019,0.024 z"
             id="path332" />
          <g
             id="arrows3_3">
            <path
               id="use334"
               stroke="none"
               fill="#000000"
               d="m -1.6899985,-0.00709368 0.05144,0.06220865 -0.047923,-0.14613497 -0.059983,0.1416124 z"
               style="stroke-width:0.00048" />
          </g>
        </g>
        <g
           id="fieldline3_4">
          <path
             d="m -1.81,-1.0397 0.043,-0.0049 0.0433,-0.0036 0.0436,-0.0023 0.0438,-0.0011 0.0441,2e-4 0.0441,0.0015 0.0443,0.0027 0.0443,0.004 0.0442,0.0054 0.0442,0.0065 0.044,0.0079 0.0438,0.0091 0.0436,0.0104 0.0433,0.0116 0.0429,0.0129 0.0425,0.014 0.042,0.0152 0.0415,0.0164 0.0409,0.0175 0.0402,0.0187 0.0395,0.0197 0.0387,0.0207 0.0379,0.0217 0.037,0.0227 0.036,0.0236 0.0351,0.0244 0.034,0.0253 0.0329,0.026 0.0317,0.0268 0.0306,0.0274 0.0292,0.0279 0.0281,0.0285 0.0266,0.029 0.0254,0.0293 0.0239,0.0297 0.0226,0.03 0.0211,0.0302 0.0197,0.0304 0.0183,0.0305 0.0169,0.0305 0.0154,0.0306 0.014,0.0306 0.0126,0.0305 0.0112,0.0305 0.0098,0.0303 0.0085,0.0304 0.0071,0.0302 0.0058,0.0301 0.0045,0.0301 0.0032,0.03 0.0019,0.03 6e-4,0.03 -6e-4,0.03 -0.0019,0.0299 -0.0032,0.0301 -0.0045,0.03 -0.0058,0.0302 -0.0071,0.0302 -0.0085,0.0303 -0.0098,0.0304 -0.0112,0.0305 -0.0126,0.0305 -0.014,0.0306 -0.0154,0.0306 -0.0169,0.0305 -0.0183,0.0305 -0.0197,0.0304 -0.0211,0.0302 -0.0226,0.03 -0.0239,0.0297 -0.0254,0.0293 -0.0266,0.029 -0.0281,0.0285 -0.0292,0.0279 -0.0306,0.0274 -0.0317,0.0268 -0.0329,0.026 -0.034,0.0253 -0.035,0.0244 -0.0361,0.0236 -0.037,0.0227 -0.0379,0.0217 -0.0387,0.0207 -0.0395,0.0197 -0.0402,0.0187 -0.0409,0.0175 -0.0415,0.0164 -0.042,0.0152 -0.0425,0.014 -0.0429,0.0129 -0.0433,0.0116 -0.0435,0.0104 -0.0439,0.0091 -0.044,0.0079 -0.0442,0.0065 -0.0442,0.0054 -0.0443,0.004 -0.0443,0.0027 -0.0441,0.0015 -0.0441,2e-4 L -1.6801,1.0505 -1.7237,1.0482 -1.767,1.0446 -1.81,1.0397"
             id="path338" />
          <g
             id="arrows3_4">
            <path
               id="use340"
               stroke="none"
               fill="#000000"
               d="m -1.0325582,-0.93512032 -0.076196,0.0266494 0.15368343,0.00578 L -1.0670589,-1.008098 Z"
               style="stroke-width:0.00048" />
            <path
               id="use342"
               stroke="none"
               fill="#000000"
               d="m -1.0459173,0.94059198 0.036537,-0.0719793 -0.1149055,0.10221903 0.15378517,-0.00146 z"
               style="stroke-width:0.00048" />
          </g>
        </g>
        <g
           id="fieldline3_5">
          <path
             d="m -1.46,-1.81 0.0572,0.0366 0.0562,0.0375 0.0554,0.0385 0.0543,0.0392 0.0534,0.0402 0.0523,0.0409 0.0512,0.0417 0.0501,0.0424 0.0489,0.0431 0.0477,0.0437 0.0465,0.0443 0.0452,0.0448 0.0439,0.0453 0.0426,0.0458 0.0412,0.0461 0.0397,0.0465 0.0384,0.0467 0.0368,0.0468 0.0354,0.0471 0.0338,0.047 0.0322,0.0471 0.0307,0.047 0.0291,0.0468 0.0274,0.0466 0.0258,0.0464 0.0242,0.0459 0.0225,0.0456 0.0209,0.0451 0.0193,0.0446 0.0177,0.044 0.016,0.0434 0.0146,0.0428 0.0129,0.0422 0.0115,0.0416 0.01,0.0411 0.0086,0.0405 0.0072,0.04 0.0058,0.0395 0.0045,0.0392 0.0032,0.039 0.002,0.0387 6e-4,0.0387 -6e-4,0.0387 -0.002,0.0387 -0.0032,0.039 -0.0045,0.0392 -0.0058,0.0395 -0.0072,0.04 L -0.215,0.2756 -0.225,0.3167 -0.2365,0.3583 -0.2494,0.4005 -0.264,0.4433 -0.28,0.4867 -0.2977,0.5307 -0.317,0.5753 -0.3379,0.6204 -0.3604,0.666 -0.3846,0.7119 -0.4104,0.7583 -0.4378,0.8049 -0.4669,0.8517 -0.4976,0.8987 -0.5298,0.9458 -0.5636,0.9928 -0.599,1.0399 -0.6358,1.0867 -0.6742,1.1334 -0.7139,1.1799 -0.7551,1.226 -0.7977,1.2718 -0.8416,1.3171 -0.8868,1.3619 -0.9333,1.4062 -0.981,1.4499 -1.0299,1.493 -1.08,1.5354 -1.1312,1.5771 -1.1835,1.618 -1.2369,1.6582 -1.2912,1.6974 -1.3466,1.7359 -1.4028,1.7734 -1.46,1.81"
             id="path346" />
          <g
             id="arrows3_5">
            <path
               id="use348"
               stroke="none"
               fill="#000000"
               d="m -0.72356122,-1.1901793 -0.0801451,-0.00963 0.13543085,0.072873 -0.0541204,-0.1439548 z"
               style="stroke-width:0.00048" />
            <path
               id="use350"
               stroke="none"
               fill="#000000"
               d="m -0.73302614,1.2010431 1.4482e-4,-0.080722 -0.0564498,0.1430574 0.1365958,-0.070665 z"
               style="stroke-width:0.00048" />
          </g>
        </g>
        <g
           id="fieldline3_6">
          <path
             d="m -0.5608,-1.81 0.0389,0.09 0.0373,0.0891 0.0355,0.0881 0.0339,0.0871 0.0321,0.0859 0.0303,0.0846 0.0286,0.0833 0.0269,0.0817 0.0251,0.0803 0.0233,0.0785 0.0216,0.0769 0.0198,0.0749 0.018,0.073 0.0164,0.071 0.0147,0.069 0.013,0.067 0.0115,0.0649 0.0099,0.063 0.0084,0.0612 0.007,0.0595 0.0056,0.0581 0.0043,0.0568 0.0031,0.0559 0.0018,0.0553 6e-4,0.0549 v 0 l -6e-4,0.0549 -0.0018,0.0553 -0.0031,0.0559 -0.0043,0.0568 -0.0056,0.0581 -0.007,0.0595 -0.0084,0.0612 -0.0099,0.063 -0.0115,0.0649 -0.013,0.067 -0.0147,0.069 -0.0164,0.071 -0.018,0.073 -0.0198,0.0749 -0.0216,0.0768 -0.0233,0.0786 -0.0251,0.0802 -0.0269,0.0818 -0.0286,0.0833 -0.0303,0.0846 -0.0321,0.0859 -0.0339,0.0871 -0.0355,0.0881 -0.0373,0.0891 -0.0389,0.09"
             id="path354" />
          <g
             id="arrows3_6">
            <path
               id="use356"
               stroke="none"
               fill="#000000"
               d="m -0.37316818,-1.3419231 -0.0710918,-0.038235 0.099463,0.1172992 0.00219,-0.1537764 z"
               style="stroke-width:0.00048" />
            <path
               id="use358"
               stroke="none"
               fill="#000000"
               d="m -0.37817553,1.355361 -0.0300784,-0.074909 0.001197,0.1537874 0.10021845,-0.1166544 z"
               style="stroke-width:0.00048" />
          </g>
        </g>
        <g
           id="fieldline3_7">
          <path
             d="M 0,-1.81 V -0.905 0 0.905 1.81"
             id="path362" />
          <g
             id="arrows3_7">
            <path
               id="use364"
               stroke="none"
               fill="#000000"
               d="m 0,-1.3928 -0.054,-0.06 0.054,0.144 0.054,-0.144 z"
               style="stroke-width:0.00048" />
            <path
               id="use366"
               stroke="none"
               fill="#000000"
               d="M 0,1.4072 -0.054,1.3472 0,1.4912 0.054,1.3472 Z"
               style="stroke-width:0.00048" />
          </g>
        </g>
        <g
           id="fieldline3_8">
          <path
             d="m 0.5608,-1.81 -0.0389,0.09 -0.0373,0.0891 -0.0355,0.0881 -0.0339,0.0871 -0.0321,0.0859 -0.0303,0.0846 -0.0286,0.0833 -0.0269,0.0817 -0.0251,0.0803 -0.0233,0.0785 -0.0216,0.0769 -0.0198,0.0749 -0.018,0.073 -0.0164,0.071 -0.0147,0.069 -0.013,0.067 L 0.1339,-0.4647 0.124,-0.4017 0.1156,-0.3405 0.1086,-0.281 0.103,-0.2229 0.0987,-0.1661 0.0956,-0.1102 0.0938,-0.0549 0.0932,0 v 0 l 6e-4,0.0549 0.0018,0.0553 0.0031,0.0559 0.0043,0.0568 0.0056,0.0581 0.007,0.0595 0.0084,0.0612 0.0099,0.063 0.0115,0.0649 0.013,0.067 0.0147,0.069 0.0164,0.071 0.018,0.073 0.0198,0.0749 0.0216,0.0768 0.0233,0.0786 0.0251,0.0802 0.0269,0.0818 0.0286,0.0833 0.0303,0.0846 0.0321,0.0859 0.0339,0.0871 0.0355,0.0881 0.0373,0.0891 0.0389,0.09"
             id="path370" />
          <g
             id="arrows3_8">
            <path
               id="use372"
               stroke="none"
               fill="#000000"
               d="m 0.37316818,-1.3419231 -0.0305615,-0.074713 0.00219,0.1537764 0.099463,-0.1172992 z"
               style="stroke-width:0.00048" />
            <path
               id="use374"
               stroke="none"
               fill="#000000"
               d="M 0.37817553,1.355361 0.30683823,1.317586 0.40705668,1.4342404 0.40825368,1.280453 Z"
               style="stroke-width:0.00048" />
          </g>
        </g>
        <g
           id="fieldline3_9">
          <path
             d="M 1.46,-1.81 1.4028,-1.7734 1.3466,-1.7359 1.2912,-1.6974 1.2369,-1.6582 1.1835,-1.618 1.1312,-1.5771 1.08,-1.5354 1.0299,-1.493 0.981,-1.4499 0.9333,-1.4062 0.8868,-1.3619 0.8416,-1.3171 0.7977,-1.2718 0.7551,-1.226 0.7139,-1.1799 0.6742,-1.1334 0.6358,-1.0867 0.599,-1.0399 0.5636,-0.9928 0.5298,-0.9458 0.4976,-0.8987 0.4669,-0.8517 0.4378,-0.8049 0.4104,-0.7583 0.3846,-0.7119 0.3604,-0.666 0.3379,-0.6204 0.317,-0.5753 0.2977,-0.5307 0.28,-0.4867 0.264,-0.4433 0.2494,-0.4005 0.2365,-0.3583 0.225,-0.3167 l -0.01,0.0411 -0.0086,0.0405 -0.0072,0.04 -0.0058,0.0395 -0.0045,0.0392 -0.0032,0.039 -0.002,0.0387 L 0.1831,0 v 0 l 6e-4,0.0387 0.002,0.0387 0.0032,0.039 0.0045,0.0392 0.0058,0.0395 0.0072,0.04 L 0.215,0.2756 0.225,0.3167 0.2365,0.3583 0.2494,0.4005 0.264,0.4433 0.28,0.4867 0.2977,0.5307 0.317,0.5753 0.3379,0.6204 0.3604,0.666 0.3846,0.7119 0.4104,0.7583 0.4378,0.8049 0.4669,0.8517 0.4976,0.8987 0.5298,0.9458 0.5636,0.9928 0.599,1.0399 0.6358,1.0867 0.6742,1.1334 0.7139,1.1799 0.7551,1.226 0.7977,1.2718 0.8416,1.3171 0.8868,1.3619 0.9333,1.4062 0.981,1.4499 1.0299,1.493 1.08,1.5354 1.1312,1.5771 1.1835,1.618 1.2369,1.6582 1.2912,1.6974 1.3466,1.7359 1.4028,1.7734 1.46,1.81"
             id="path378" />
          <g
             id="arrows3_9">
            <path
               id="use380"
               stroke="none"
               fill="#000000"
               d="m 0.72356122,-1.1901793 -0.001165,-0.080713 -0.0541204,0.1439548 0.13543085,-0.072873 z"
               style="stroke-width:0.00048" />
            <path
               id="use382"
               stroke="none"
               fill="#000000"
               d="M 0.73302614,1.2010431 0.6527353,1.1927135 0.7893311,1.2633789 0.73288132,1.1203215 Z"
               style="stroke-width:0.00048" />
          </g>
        </g>
        <g
           id="fieldline3_10">
          <path
             d="M 1.81,-1.0397 1.767,-1.0446 1.7237,-1.0482 1.6801,-1.0505 1.6363,-1.0516 l -0.0441,2e-4 -0.0441,0.0015 -0.0443,0.0027 -0.0443,0.004 -0.0442,0.0054 -0.0442,0.0065 -0.044,0.0079 -0.0438,0.0091 -0.0436,0.0104 -0.0433,0.0116 -0.0429,0.0129 -0.0425,0.014 -0.042,0.0152 -0.0415,0.0164 -0.0409,0.0175 -0.0402,0.0187 -0.0395,0.0197 -0.0387,0.0207 -0.0379,0.0217 -0.037,0.0227 -0.036,0.0236 -0.0351,0.0244 -0.034,0.0253 -0.0329,0.026 -0.0317,0.0268 -0.0306,0.0274 -0.0292,0.0279 -0.0281,0.0285 -0.0266,0.029 -0.0254,0.0293 -0.0239,0.0297 -0.0226,0.03 -0.0211,0.0302 -0.0197,0.0304 -0.0183,0.0305 -0.0169,0.0305 -0.0154,0.0306 -0.014,0.0306 L 0.3192,-0.2716 0.308,-0.2411 0.2982,-0.2108 0.2897,-0.1804 0.2826,-0.1502 0.2768,-0.1201 0.2723,-0.09 0.2691,-0.06 0.2672,-0.03 0.2666,0 0.2672,0.03 0.2691,0.0599 0.2723,0.09 0.2768,0.12 0.2826,0.1502 0.2897,0.1804 0.2982,0.2107 0.308,0.2411 l 0.0112,0.0305 0.0126,0.0305 0.014,0.0306 0.0154,0.0306 0.0169,0.0305 0.0183,0.0305 0.0197,0.0304 0.0211,0.0302 0.0226,0.03 0.0239,0.0297 0.0254,0.0293 0.0266,0.029 0.0281,0.0285 0.0292,0.0279 0.0306,0.0274 0.0317,0.0268 0.0329,0.026 0.034,0.0253 0.035,0.0244 0.0361,0.0236 0.037,0.0227 0.0379,0.0217 0.0387,0.0207 0.0395,0.0197 0.0402,0.0187 0.0409,0.0175 0.0415,0.0164 0.042,0.0152 0.0425,0.014 0.0429,0.0129 0.0433,0.0116 0.0435,0.0104 0.0439,0.0091 0.044,0.0079 0.0442,0.0065 0.0442,0.0054 0.0443,0.004 0.0443,0.0027 0.0441,0.0015 0.0441,2e-4 L 1.6801,1.0505 1.7237,1.0482 1.767,1.0446 1.81,1.0397"
             id="path386" />
          <g
             id="arrows3_10">
            <path
               id="use388"
               stroke="none"
               fill="#000000"
               d="m 1.0325582,-0.93512032 0.034501,-0.0729775 -0.11198813,0.10540695 0.15368343,-0.00578 z"
               style="stroke-width:0.00048" />
            <path
               id="use390"
               stroke="none"
               fill="#000000"
               d="m 1.0459173,0.94059198 -0.0754171,0.0287797 0.1537852,0.00146 -0.1149055,-0.10221903 z"
               style="stroke-width:0.00048" />
          </g>
        </g>
        <g
           id="fieldline3_11">
          <path
             d="m 0.3411,0 7e-4,0.024 0.0019,0.024 0.0031,0.0239 0.0045,0.0239 0.0057,0.0238 0.007,0.0236 0.0083,0.0236 0.0096,0.0234 0.0109,0.0231 0.0122,0.0229 0.0134,0.0226 0.0148,0.0223 0.016,0.0218 0.0173,0.0215 0.0184,0.0209 0.0197,0.0203 0.0209,0.0197 0.022,0.019 0.0231,0.0183 0.0241,0.0175 0.0251,0.0166 0.026,0.0157 0.0269,0.0147 0.0277,0.0137 0.0284,0.0126 0.029,0.0116 0.0297,0.0104 0.0301,0.0092 0.0306,0.0081 0.0309,0.0068 0.0311,0.0056 0.0314,0.0043 0.0315,0.0031 0.0315,0.0018 0.0315,5e-4 0.0314,-7e-4 L 1.0987,0.5721 1.1297,0.5688 1.1604,0.5643 1.1906,0.5586 1.2205,0.5517 1.2498,0.5436 1.2785,0.5344 1.3066,0.524 1.3341,0.5125 1.3608,0.5 1.3867,0.4864 1.4118,0.4719 1.436,0.4564 1.4593,0.44 1.4817,0.4227 1.5031,0.4046 1.5234,0.3857 1.5427,0.366 1.5609,0.3457 1.578,0.3247 1.594,0.3031 1.6088,0.2809 1.6224,0.2582 1.6349,0.235 1.6461,0.2114 1.6562,0.1874 1.665,0.1631 1.6725,0.1385 1.6788,0.1137 1.6839,0.0886 1.6877,0.0634 1.6902,0.0381 1.6915,0.0127 V -0.0127 L 1.6902,-0.0381 1.6877,-0.0634 1.6839,-0.0886 1.6788,-0.1137 1.6725,-0.1385 1.665,-0.1631 1.6562,-0.1875 1.6461,-0.2114 1.6349,-0.235 1.6224,-0.2582 1.6088,-0.2809 1.594,-0.3031 1.578,-0.3247 1.5609,-0.3457 1.5427,-0.366 1.5234,-0.3857 1.5031,-0.4046 1.4817,-0.4227 1.4593,-0.44 1.436,-0.4564 1.4118,-0.4719 1.3867,-0.4864 1.3608,-0.5 1.3341,-0.5125 1.3066,-0.524 1.2785,-0.5344 1.2498,-0.5436 1.2205,-0.5517 1.1906,-0.5586 1.1604,-0.5643 1.1297,-0.5688 l -0.031,-0.0033 -0.0312,-0.002 -0.0314,-7e-4 -0.0315,5e-4 -0.0315,0.0018 -0.0315,0.0031 -0.0314,0.0043 -0.0311,0.0056 -0.0309,0.0068 -0.0306,0.0081 -0.0301,0.0092 -0.0297,0.0104 -0.029,0.0116 -0.0284,0.0126 -0.0277,0.0137 -0.0269,0.0147 -0.026,0.0157 -0.0251,0.0166 -0.0241,0.0175 -0.0231,0.0183 -0.022,0.019 -0.0209,0.0197 -0.0197,0.0203 -0.0184,0.021 -0.0173,0.0214 -0.016,0.0218 L 0.4184,-0.2588 0.405,-0.2362 0.3928,-0.2133 0.3819,-0.1901 0.3723,-0.1668 0.364,-0.1432 0.357,-0.1196 0.3513,-0.0958 0.3468,-0.0719 0.3437,-0.048 0.3418,-0.024 Z"
             id="path394" />
          <g
             id="arrows3_11">
            <path
               id="use396"
               stroke="none"
               fill="#000000"
               d="M 1.6899985,-0.00709368 1.7464637,0.0505924 1.6864809,-0.09102 1.6385584,0.05511497 Z"
               style="stroke-width:0.00048" />
          </g>
        </g>
        <g
           id="fieldline3_12">
          <path
             d="M 0.4051,0 0.4058,0.0196 0.4077,0.0391 0.4109,0.0586 0.4154,0.0779 0.4211,0.097 0.4282,0.1158 0.4364,0.1343 0.4459,0.1525 0.4567,0.1702 0.4686,0.1874 0.4817,0.204 0.496,0.22 0.5114,0.2353 0.5278,0.2499 0.5453,0.2636 0.5637,0.2764 0.583,0.2883 0.6031,0.2992 0.6239,0.309 0.6454,0.3177 0.6675,0.3253 0.69,0.3316 0.713,0.3368 0.7363,0.3407 0.7597,0.3433 0.7833,0.3447 H 0.8069 L 0.8303,0.3435 0.8537,0.341 0.8767,0.3373 0.8994,0.3323 0.9216,0.3261 0.9434,0.3188 0.9645,0.3102 0.9849,0.3006 1.0046,0.29 1.0235,0.2783 1.0415,0.2656 1.0586,0.2521 1.0747,0.2377 1.0898,0.2225 1.1038,0.2065 1.1168,0.1899 1.1285,0.1727 1.1392,0.1549 1.1486,0.1366 1.1568,0.1179 1.1638,0.0988 1.1695,0.0794 1.174,0.0598 1.1772,0.0399 1.1791,0.02 1.1797,0 1.1791,-0.02 1.1772,-0.0399 1.174,-0.0598 1.1695,-0.0794 1.1638,-0.0988 1.1568,-0.1179 1.1486,-0.1366 1.1392,-0.1549 1.1285,-0.1727 1.1168,-0.1899 1.1038,-0.2065 1.0898,-0.2225 1.0747,-0.2377 1.0586,-0.2521 1.0415,-0.2656 1.0235,-0.2783 1.0046,-0.29 0.9849,-0.3006 0.9645,-0.3102 0.9434,-0.3188 0.9216,-0.3261 0.8994,-0.3323 0.8767,-0.3373 0.8537,-0.341 0.8303,-0.3435 0.8069,-0.3447 H 0.7833 L 0.7597,-0.3433 0.7363,-0.3407 0.713,-0.3368 0.69,-0.3316 0.6675,-0.3253 0.6454,-0.3177 0.6239,-0.309 0.6031,-0.2992 0.5829,-0.2883 0.5637,-0.2764 0.5453,-0.2636 0.5278,-0.2499 0.5114,-0.2353 0.496,-0.22 0.4817,-0.204 0.4686,-0.1874 0.4567,-0.1702 0.4459,-0.1525 0.4364,-0.1343 0.4282,-0.1158 0.4211,-0.097 0.4154,-0.0779 0.4109,-0.0586 0.4077,-0.0391 0.4058,-0.0196 Z"
             id="path400" />
          <g
             id="arrows3_12">
            <path
               id="use402"
               stroke="none"
               fill="#000000"
               d="m 1.1770877,-0.00698175 0.058132,0.05600588 -0.064109,-0.139793 -0.043618,0.14747712 z"
               style="stroke-width:0.00048" />
          </g>
        </g>
        <g
           id="fieldline3_13">
          <path
             d="M 0.4579,0 0.4585,0.0159 0.4604,0.0317 0.4636,0.0474 0.4681,0.0629 0.4737,0.078 0.4807,0.0927 0.4888,0.107 0.498,0.1207 0.5084,0.1337 0.5199,0.146 0.5324,0.1576 0.5458,0.1682 0.5601,0.178 0.5752,0.1867 0.591,0.1943 0.6075,0.2008 0.6244,0.2062 0.6418,0.2103 0.6595,0.2132 0.6773,0.2148 0.6953,0.2151 0.7132,0.2142 0.7309,0.212 0.7484,0.2085 0.7655,0.2038 0.7821,0.1979 0.7982,0.1909 0.8136,0.1827 0.8282,0.1735 0.842,0.1634 0.8549,0.1523 0.8668,0.1404 0.8777,0.1277 0.8875,0.1143 0.8962,0.1003 0.9037,0.0858 0.91,0.0708 0.915,0.0555 0.9189,0.0398 0.9214,0.024 0.9227,0.008 V -0.008 L 0.9214,-0.024 0.9189,-0.0398 0.915,-0.0554 0.91,-0.0708 0.9037,-0.0858 0.8962,-0.1003 0.8875,-0.1143 0.8777,-0.1277 0.8668,-0.1404 0.8549,-0.1523 0.842,-0.1634 0.8282,-0.1735 0.8136,-0.1827 0.7982,-0.1908 0.7821,-0.1979 0.7655,-0.2038 0.7484,-0.2085 0.7309,-0.212 0.7132,-0.2142 0.6953,-0.2151 0.6773,-0.2148 0.6595,-0.2132 0.6418,-0.2103 0.6244,-0.2062 0.6075,-0.2008 0.591,-0.1943 0.5752,-0.1867 0.5601,-0.178 0.5458,-0.1682 0.5324,-0.1576 0.5199,-0.146 0.5084,-0.1337 0.4981,-0.1207 0.4888,-0.107 0.4807,-0.0927 0.4738,-0.078 0.4681,-0.0629 0.4636,-0.0474 0.4604,-0.0318 0.4585,-0.0159 Z"
             id="path406" />
          <g
             id="arrows3_13">
            <path
               id="use408"
               stroke="none"
               fill="#000000"
               d="m 0.91870991,-0.00675652 0.060258,0.05371201 -0.0694756,-0.13720473 -0.0378721,0.14905603 z"
               style="stroke-width:0.00048" />
          </g>
        </g>
      </g>
      <g
         id="symbols3">
        <g
           id="out_symbol"
           transform="matrix(0.01,0,0,0.01,-0.6,0)">
          <circle
             cy="0"
             cx="0"
             r="21"
             stroke="none"
             fill="#999999"
             id="circle413" />
          <circle
             r="21"
             stroke="#000000"
             cy="0"
             cx="0"
             stroke-width="3"
             fill="url(#white_spot)"
             id="circle415"
             style="fill:url(#radialGradient4308)" />
          <circle
             cx="0"
             cy="0"
             r="6"
             id="circle417" />
        </g>
        <g
           id="in_symbol"
           transform="matrix(0.01,0,0,0.01,0.6,0)">
          <circle
             cy="0"
             cx="0"
             r="21"
             stroke="none"
             fill="#999999"
             id="circle420" />
          <circle
             r="21"
             stroke="#000000"
             cy="0"
             cx="0"
             stroke-width="3"
             fill="url(#white_spot)"
             id="circle422"
             style="fill:url(#radialGradient4310)" />
          <path
             d="m 8,-12.24 4.24,4.24 -8,8 8,8 -4.24,4.24 -8,-8 -8,8 -4.24,-4.24 8,-8 -8,-8 4.24,-4.24 8,8 z"
             style="fill:#000000;stroke:none"
             id="path424" />
        </g>
      </g>
    </g>
    <rect
       y="-120.3026"
       x="61.996517"
       style="fill:none;stroke:#aaaaaa;stroke-width:0.79375"
       height="95.25"
       width="95.25"
       transform="scale(1,-1)"
       id="rect429" />
  </g>
</svg>
